<svg width="520" height="166" viewBox="0 0 520 166" fill="none" xmlns="http://www.w3.org/2000/svg">
<path d="M43 62.2452C39.4 49.8452 14.1667 47.4118 2 47.7452V139.5C2 153.307 13.1929 164.5 27 164.5H493.5C507.307 164.5 518.5 153.307 518.5 139.5V13.2452C461.5 -21.2548 450 32.7452 468 53.2452C486 73.7452 410 78.7452 387 62.2452C364 45.7452 292 53.2452 304.5 68.2452C317 83.2452 324 101.745 283.5 108.245C243.908 114.599 245.887 86.5493 253.937 63.8008C254.302 62.7708 254.484 61.6325 254.352 60.548C249.071 17.1453 134.667 52.2577 108.5 53.2452C82 54.2452 83 62.2452 96.5 85.2452C110 108.245 74 135.745 43 108.245C12 80.7452 47.5 77.7452 43 62.2452Z" stroke="black" stroke-width="3"/>
</svg>
