<svg width="520" height="285" viewBox="0 0 520 285" fill="none" xmlns="http://www.w3.org/2000/svg">
<path d="M43 62.2452C39.4 49.8452 14.1667 47.4118 2 47.7452V277C14.3333 277.5 38.6 273.7 37 254.5C21.5 207.5 63.5756 206 68.5 206C74.3993 206 106.399 206 88.9383 255.9C88.3787 257.499 88.5776 259.322 89.6995 260.591C125.221 300.785 278.176 279.643 259 258.5C239.5 237 232.5 191.5 291.5 200C350.5 208.5 300 248 304 258.5C304.29 259.262 306 277 346.5 277C385.472 277 461.945 281.167 467.661 260.988C468.091 259.467 467.211 257.924 465.967 256.947C430.193 228.859 462.5 211.518 462.5 212.5C462.5 213.5 481 199 518.5 208.5V13.2452C461.5 -21.2548 450 32.7452 468 53.2452C486 73.7452 410 78.7452 387 62.2452C364 45.7452 292 53.2452 304.5 68.2452C317 83.2452 324 101.745 283.5 108.245C243.908 114.599 245.887 86.5493 253.937 63.8008C254.302 62.7708 254.484 61.6325 254.352 60.548C249.071 17.1453 134.667 52.2577 108.5 53.2452C82 54.2452 83 62.2452 96.5 85.2452C110 108.245 74 135.745 43 108.245C12 80.7452 47.5 77.7452 43 62.2452Z" stroke="black" stroke-width="3"/>
</svg>
