<svg width="520" height="204" viewBox="0 0 520 204" fill="none" xmlns="http://www.w3.org/2000/svg">
<path d="M2 129.5V27C2 13.1929 13.1929 2 27 2H493.5C507.307 2 518.5 13.1929 518.5 27V95C461.5 60.5 450 114.5 468 135C486 155.5 410 160.5 387 144C364 127.5 292 135 304.5 150C317 165 324 183.5 283.5 190C243.908 196.354 245.887 168.304 253.937 145.556C254.302 144.526 254.484 143.387 254.352 142.303C249.071 98.9001 134.667 134.013 108.5 135C82 136 83 144 96.5 167C110 190 74 217.5 43 190C12 162.5 47.5 159.5 43 144C39.4 131.6 14.1667 129.167 2 129.5Z" stroke="black" stroke-width="3"/>
</svg>
