<svg width="520" height="196" viewBox="0 0 520 196" fill="none" xmlns="http://www.w3.org/2000/svg">
<path d="M37 57.5452C38.6 76.7452 14.3333 80.5452 2 80.0452V169.5C2 183.307 13.1929 194.5 27 194.5H493.5C507.307 194.5 518.5 183.307 518.5 169.5V11.5452C481 2.04517 462.5 16.5452 462.5 15.5452C462.5 14.5631 430.193 31.9044 465.967 59.9926C467.211 60.9689 468.091 62.5117 467.661 64.0329C461.945 84.212 385.472 80.0452 346.5 80.0452C306 80.0452 304.29 62.3074 304 61.5452C300 51.0452 350.5 11.5452 291.5 3.04517C232.5 -5.45483 239.5 40.0452 259 61.5452C278.176 82.6877 125.221 103.83 89.6995 63.6366C88.5776 62.3671 88.3787 60.5437 88.9383 58.9447C106.399 9.04517 74.3993 9.04517 68.5 9.04517C63.5756 9.04517 21.5 10.5452 37 57.5452Z" stroke="black" stroke-width="3"/>
</svg>
